# xmcd CD database file
#
# Track frame offsets:
#	150
#	14927
#	29406
#	45591
#	60844
#	85078
#	107023
#	122897
#	139868
#	165491
#	185736
#	205924
#
# Disc length: 3012 seconds
#
# Revision: 5
# Processed by: cddbd v1.5.2PL0 Copyright (c) Steve Scherf et al.
# Submitted via: CDex 1.51
#
DISCID=a40bc20c
DTITLE=The Jeff Healey Band - See The Light
DYEAR=1988
DGENRE=Blues
TTITLE0=Confidence Man
TTITLE1=My Little Girl
TTITLE2=River Of No Return
TTITLE3=Don't Let Your Chance Go By
TTITLE4=Angel Eyes
TTITLE5=Nice Problem To Have
TTITLE6=Someday, Someway
TTITLE7=I Need To Be Loved
TTITLE8=Blue Jeans Blues
TTITLE9=That's What They Say
TTITLE10=Hideaway
TTITLE11=See The Light
EXTD=YEAR: 1988
EXTT0=
EXTT1=
EXTT2=
EXTT3=
EXTT4=
EXTT5=
EXTT6=
EXTT7=
EXTT8=
EXTT9=
EXTT10=
EXTT11=
PLAYORDER=
